ffmpeg started on 2025-06-06 at 18:10:00
Report written to "D:\Convert\FFMetrics\reports\psnr_report-6.txt"
Log level: 32
Command line:
ffmpeg -hide_banner -nostdin -i "G:\\\xc0\xed\xe8\xec\xe5\\\xce\xed\xe3\xee\xe8\xed\xe3\xe8\\!_36_\xce\xf1\xe5\xed\xfc_2024\\DreamCast\\\xcf\xf0\xee\xf9\xe0\xe9, \xe6\xe8\xe7\xed\xfc \xe4\xf0\xe0\xea\xee\xed\xe0. \xc7\xe4\xf0\xe0\xe2\xf1\xf2\xe2\xf3\xe9, \xe6\xe8\xe7\xed\xfc \xf7\xe5\xeb\xee\xe2\xe5\xea\xe0\\[DC] Sayonara Ryuusei Konnichiwa Jinsei - 02_Telegram_HEVC.mkv" -i "G:\\\xc0\xed\xe8\xec\xe5\\\xce\xed\xe3\xee\xe8\xed\xe3\xe8\\!_36_\xce\xf1\xe5\xed\xfc_2024\\DreamCast\\\xcf\xf0\xee\xf9\xe0\xe9, \xe6\xe8\xe7\xed\xfc \xe4\xf0\xe0\xea\xee\xed\xe0. \xc7\xe4\xf0\xe0\xe2\xf1\xf2\xe2\xf3\xe9, \xe6\xe8\xe7\xed\xfc \xf7\xe5\xeb\xee\xe2\xe5\xea\xe0\\[DC] Sayonara Ryuusei Konnichiwa Jinsei - 02_Telegram.mp4" -lavfi "[0:v]settb=AVTB,setpts=PTS-STARTPTS,format=pix_fmts=yuv420p10,fps=24000/1001,scale=1920:1080:flags=bicubic[main];[1:v]settb=AVTB,setpts=PTS-STARTPTS,format=pix_fmts=yuv420p,fps=24000/1001,scale=1920:1080:flags=bicubic[ref];[main][ref]psnr=eof_action=endall:stats_file='D\\:/Convert/FFMetrics/logs/psnr_logfile-6.txt'" -f null -
Input #0, matroska,webm, from 'G:\Аниме\Онгоинги\!_36_Осень_2024\DreamCast\Прощай, жизнь дракона. Здравствуй, жизнь человека\[DC] Sayonara Ryuusei Konnichiwa Jinsei - 02_Telegram_HEVC.mkv':
  Metadata:
    COMPATIBLE_BRANDS: isomiso2avc1mp41
    MAJOR_BRAND     : isom
    MINOR_VERSION   : 512
    ENCODER         : Lavf61.7.100
  Duration: 00:24:16.77, start: -0.021000, bitrate: 1008 kb/s
  Stream #0:0: Video: hevc (Main 10), yuv420p10le(tv, bt709, progressive), 1920x1080 [SAR 1:1 DAR 16:9], 23.98 fps, 23.98 tbr, 1k tbn (default)
      Metadata:
        HANDLER_NAME    : VideoHandler
        VENDOR_ID       : [0][0][0][0]
        ENCODER         : Lavc61.19.100 libx265
        BPS             : 811462
        DURATION        : 00:24:16.579708333
        NUMBER_OF_FRAMES: 34923
        NUMBER_OF_BYTES : 147744952
        _STATISTICS_WRITING_APP: mkvpropedit v66.0.0 ('Josie') 64-bit
        _STATISTICS_WRITING_DATE_UTC: 2025-06-03 09:10:28
        _STATISTICS_TAGS: BPS DURATION NUMBER_OF_FRAMES NUMBER_OF_BYTES
  Stream #0:1: Audio: aac (LC), 48000 Hz, stereo, fltp (default)
      Metadata:
        HANDLER_NAME    : SoundHandler
        VENDOR_ID       : [0][0][0][0]
        ENCODER         : Lavc61.19.100 aac
        BPS             : 193286
        DURATION        : 00:24:16.768000000
        NUMBER_OF_FRAMES: 68287
        NUMBER_OF_BYTES : 35196783
        _STATISTICS_WRITING_APP: mkvpropedit v66.0.0 ('Josie') 64-bit
        _STATISTICS_WRITING_DATE_UTC: 2025-06-03 09:10:28
        _STATISTICS_TAGS: BPS DURATION NUMBER_OF_FRAMES NUMBER_OF_BYTES
Input #1, mov,mp4,m4a,3gp,3g2,mj2, from 'G:\Аниме\Онгоинги\!_36_Осень_2024\DreamCast\Прощай, жизнь дракона. Здравствуй, жизнь человека\[DC] Sayonara Ryuusei Konnichiwa Jinsei - 02_Telegram.mp4':
  Metadata:
    major_brand     : isom
    minor_version   : 512
    compatible_brands: isomiso2avc1mp41
    encoder         : Lavf61.1.100
  Duration: 00:24:16.72, start: 0.000000, bitrate: 3702 kb/s
  Stream #1:0[0x1](und): Video: h264 (High) (avc1 / 0x31637661), yuv420p(tv, bt709, progressive), 1920x1080 [SAR 1:1 DAR 16:9], 3555 kb/s, 23.98 fps, 23.98 tbr, 24k tbn (default)
      Metadata:
        handler_name    : VideoHandler
        vendor_id       : [0][0][0][0]
        encoder         : Lavc61.3.100 h264_qsv
  Stream #1:1[0x2](und): Audio: aac (HE-AACv2) (mp4a / 0x6134706D), 48000 Hz, stereo, fltp, 144 kb/s (default)
      Metadata:
        handler_name    : SoundHandler
        vendor_id       : [0][0][0][0]
Stream mapping:
  Stream #0:0 (hevc) -> settb:default
  Stream #1:0 (h264) -> settb:default
  psnr:default -> Stream #0:0 (wrapped_avframe)
  Stream #0:1 -> #0:1 (aac (native) -> pcm_s16le (native))
Output #0, null, to 'pipe:':
  Metadata:
    COMPATIBLE_BRANDS: isomiso2avc1mp41
    MAJOR_BRAND     : isom
    MINOR_VERSION   : 512
    encoder         : Lavf61.7.100
  Stream #0:0: Video: wrapped_avframe, yuv420p10le(tv, bt709, progressive), 1920x1080 [SAR 1:1 DAR 16:9], q=2-31, 200 kb/s, 23.98 fps, 23.98 tbn
      Metadata:
        encoder         : Lavc61.19.100 wrapped_avframe
  Stream #0:1: Audio: pcm_s16le, 48000 Hz, stereo, s16, 1536 kb/s (default)
      Metadata:
        HANDLER_NAME    : SoundHandler
        VENDOR_ID       : [0][0][0][0]
        _STATISTICS_TAGS: BPS DURATION NUMBER_OF_FRAMES NUMBER_OF_BYTES
        BPS             : 193286
        DURATION        : 00:24:16.768000000
        NUMBER_OF_FRAMES: 68287
        NUMBER_OF_BYTES : 35196783
        _STATISTICS_WRITING_APP: mkvpropedit v66.0.0 ('Josie') 64-bit
        _STATISTICS_WRITING_DATE_UTC: 2025-06-03 09:10:28
        encoder         : Lavc61.19.100 pcm_s16le
frame=  168 fps=0.0 q=-0.0 size=N/A time=00:00:07.00 bitrate=N/A speed=13.7x    frame=  425 fps=417 q=-0.0 size=N/A time=00:00:17.72 bitrate=N/A speed=17.4x    frame=  702 fps=454 q=-0.0 size=N/A time=00:00:29.27 bitrate=N/A speed=  19x    frame=  921 fps=447 q=-0.0 size=N/A time=00:00:38.41 bitrate=N/A speed=18.6x    frame= 1189 fps=462 q=-0.0 size=N/A time=00:00:49.59 bitrate=N/A speed=19.3x    frame= 1432 fps=464 q=-0.0 size=N/A time=00:00:59.72 bitrate=N/A speed=19.4x    frame= 1650 fps=457 q=-0.0 size=N/A time=00:01:08.81 bitrate=N/A speed=19.1x    frame= 1856 fps=451 q=-0.0 size=N/A time=00:01:17.41 bitrate=N/A speed=18.8x    frame= 2041 fps=441 q=-0.0 size=N/A time=00:01:25.12 bitrate=N/A speed=18.4x    frame= 2239 fps=434 q=-0.0 size=N/A time=00:01:33.38 bitrate=N/A speed=18.1x    frame= 2435 fps=430 q=-0.0 size=N/A time=00:01:41.55 bitrate=N/A speed=17.9x    frame= 2630 fps=425 q=-0.0 size=N/A time=00:01:49.69 bitrate=N/A speed=17.7x    frame= 2825 fps=422 q=-0.0 size=N/A time=00:01:57.82 bitrate=N/A speed=17.6x    frame= 3042 fps=422 q=-0.0 size=N/A time=00:02:06.87 bitrate=N/A speed=17.6x    frame= 3245 fps=420 q=-0.0 size=N/A time=00:02:15.34 bitrate=N/A speed=17.5x    frame= 3465 fps=420 q=-0.0 size=N/A time=00:02:24.56 bitrate=N/A speed=17.5x    frame= 3708 fps=424 q=-0.0 size=N/A time=00:02:34.65 bitrate=N/A speed=17.7x    frame= 3974 fps=428 q=-0.0 size=N/A time=00:02:45.74 bitrate=N/A speed=17.9x    frame= 4248 fps=434 q=-0.0 size=N/A time=00:02:57.17 bitrate=N/A speed=18.1x    frame= 4540 fps=440 q=-0.0 size=N/A time=00:03:09.35 bitrate=N/A speed=18.4x    frame= 4815 fps=445 q=-0.0 size=N/A time=00:03:20.82 bitrate=N/A speed=18.6x    frame= 5086 fps=448 q=-0.0 size=N/A time=00:03:32.12 bitrate=N/A speed=18.7x    frame= 5365 fps=452 q=-0.0 size=N/A time=00:03:43.76 bitrate=N/A speed=18.9x    frame= 5640 fps=455 q=-0.0 size=N/A time=00:03:55.23 bitrate=N/A speed=  19x    frame= 5916 fps=459 q=-0.0 size=N/A time=00:04:06.74 bitrate=N/A speed=19.1x    frame= 6167 fps=460 q=-0.0 size=N/A time=00:04:17.21 bitrate=N/A speed=19.2x    frame= 6409 fps=460 q=-0.0 size=N/A time=00:04:27.30 bitrate=N/A speed=19.2x    frame= 6676 fps=462 q=-0.0 size=N/A time=00:04:38.44 bitrate=N/A speed=19.3x    frame= 6846 fps=457 q=-0.0 size=N/A time=00:04:45.53 bitrate=N/A speed=19.1x    frame= 7099 fps=459 q=-0.0 size=N/A time=00:04:56.08 bitrate=N/A speed=19.1x    frame= 7366 fps=460 q=-0.0 size=N/A time=00:05:07.22 bitrate=N/A speed=19.2x    frame= 7636 fps=462 q=-0.0 size=N/A time=00:05:18.48 bitrate=N/A speed=19.3x    frame= 7895 fps=464 q=-0.0 size=N/A time=00:05:29.28 bitrate=N/A speed=19.3x    frame= 8150 fps=465 q=-0.0 size=N/A time=00:05:39.92 bitrate=N/A speed=19.4x    frame= 8392 fps=465 q=-0.0 size=N/A time=00:05:50.01 bitrate=N/A speed=19.4x    frame= 8668 fps=467 q=-0.0 size=N/A time=00:06:01.52 bitrate=N/A speed=19.5x    frame= 8916 fps=467 q=-0.0 size=N/A time=00:06:11.87 bitrate=N/A speed=19.5x    frame= 9182 fps=469 q=-0.0 size=N/A time=00:06:22.96 bitrate=N/A speed=19.5x    frame= 9443 fps=469 q=-0.0 size=N/A time=00:06:33.85 bitrate=N/A speed=19.6x    frame= 9698 fps=470 q=-0.0 size=N/A time=00:06:44.48 bitrate=N/A speed=19.6x    frame= 9946 fps=470 q=-0.0 size=N/A time=00:06:54.83 bitrate=N/A speed=19.6x    frame=10194 fps=470 q=-0.0 size=N/A time=00:07:05.17 bitrate=N/A speed=19.6x    frame=10442 fps=471 q=-0.0 size=N/A time=00:07:15.51 bitrate=N/A speed=19.6x    frame=10686 fps=471 q=-0.0 size=N/A time=00:07:25.69 bitrate=N/A speed=19.6x    frame=10938 fps=471 q=-0.0 size=N/A time=00:07:36.20 bitrate=N/A speed=19.7x    frame=11186 fps=472 q=-0.0 size=N/A time=00:07:46.54 bitrate=N/A speed=19.7x    frame=11469 fps=473 q=-0.0 size=N/A time=00:07:58.35 bitrate=N/A speed=19.7x    frame=11738 fps=474 q=-0.0 size=N/A time=00:08:09.57 bitrate=N/A speed=19.8x    frame=12000 fps=475 q=-0.0 size=N/A time=00:08:20.50 bitrate=N/A speed=19.8x    frame=12278 fps=476 q=-0.0 size=N/A time=00:08:32.09 bitrate=N/A speed=19.9x    frame=12555 fps=477 q=-0.0 size=N/A time=00:08:43.64 bitrate=N/A speed=19.9x    frame=12843 fps=479 q=-0.0 size=N/A time=00:08:55.66 bitrate=N/A speed=  20x    frame=13117 fps=480 q=-0.0 size=N/A time=00:09:07.08 bitrate=N/A speed=  20x    frame=13390 fps=481 q=-0.0 size=N/A time=00:09:18.47 bitrate=N/A speed=20.1x    frame=13665 fps=482 q=-0.0 size=N/A time=00:09:29.94 bitrate=N/A speed=20.1x    frame=13921 fps=482 q=-0.0 size=N/A time=00:09:40.62 bitrate=N/A speed=20.1x    frame=14185 fps=482 q=-0.0 size=N/A time=00:09:51.63 bitrate=N/A speed=20.1x    frame=14463 fps=483 q=-0.0 size=N/A time=00:10:03.22 bitrate=N/A speed=20.2x    frame=14713 fps=484 q=-0.0 size=N/A time=00:10:13.65 bitrate=N/A speed=20.2x    frame=14971 fps=484 q=-0.0 size=N/A time=00:10:24.41 bitrate=N/A speed=20.2x    frame=15222 fps=484 q=-0.0 size=N/A time=00:10:34.88 bitrate=N/A speed=20.2x    frame=15485 fps=484 q=-0.0 size=N/A time=00:10:45.85 bitrate=N/A speed=20.2x    frame=15757 fps=485 q=-0.0 size=N/A time=00:10:57.19 bitrate=N/A speed=20.2x    frame=16027 fps=486 q=-0.0 size=N/A time=00:11:08.45 bitrate=N/A speed=20.3x    frame=16299 fps=486 q=-0.0 size=N/A time=00:11:19.80 bitrate=N/A speed=20.3x    frame=16573 fps=487 q=-0.0 size=N/A time=00:11:31.23 bitrate=N/A speed=20.3x    frame=16827 fps=487 q=-0.0 size=N/A time=00:11:41.82 bitrate=N/A speed=20.3x    frame=17111 fps=488 q=-0.0 size=N/A time=00:11:53.67 bitrate=N/A speed=20.3x    frame=17355 fps=488 q=-0.0 size=N/A time=00:12:03.84 bitrate=N/A speed=20.3x    frame=17626 fps=488 q=-0.0 size=N/A time=00:12:15.15 bitrate=N/A speed=20.4x    frame=17892 fps=489 q=-0.0 size=N/A time=00:12:26.24 bitrate=N/A speed=20.4x    frame=18176 fps=490 q=-0.0 size=N/A time=00:12:38.09 bitrate=N/A speed=20.4x    frame=18429 fps=489 q=-0.0 size=N/A time=00:12:48.64 bitrate=N/A speed=20.4x    frame=18702 fps=490 q=-0.0 size=N/A time=00:13:00.02 bitrate=N/A speed=20.4x    frame=18976 fps=490 q=-0.0 size=N/A time=00:13:11.45 bitrate=N/A speed=20.5x    frame=19248 fps=491 q=-0.0 size=N/A time=00:13:22.80 bitrate=N/A speed=20.5x    frame=19516 fps=491 q=-0.0 size=N/A time=00:13:33.97 bitrate=N/A speed=20.5x    frame=19795 fps=492 q=-0.0 size=N/A time=00:13:45.61 bitrate=N/A speed=20.5x    frame=20048 fps=492 q=-0.0 size=N/A time=00:13:56.16 bitrate=N/A speed=20.5x    frame=20310 fps=492 q=-0.0 size=N/A time=00:14:07.09 bitrate=N/A speed=20.5x    frame=20549 fps=492 q=-0.0 size=N/A time=00:14:17.06 bitrate=N/A speed=20.5x    frame=20794 fps=492 q=-0.0 size=N/A time=00:14:27.28 bitrate=N/A speed=20.5x    frame=21088 fps=492 q=-0.0 size=N/A time=00:14:39.54 bitrate=N/A speed=20.5x    frame=21323 fps=492 q=-0.0 size=N/A time=00:14:49.34 bitrate=N/A speed=20.5x    frame=21534 fps=491 q=-0.0 size=N/A time=00:14:58.14 bitrate=N/A speed=20.5x    frame=21741 fps=490 q=-0.0 size=N/A time=00:15:06.78 bitrate=N/A speed=20.4x    frame=21937 fps=489 q=-0.0 size=N/A time=00:15:14.95 bitrate=N/A speed=20.4x    frame=22193 fps=489 q=-0.0 size=N/A time=00:15:25.63 bitrate=N/A speed=20.4x    frame=22449 fps=489 q=-0.0 size=N/A time=00:15:36.31 bitrate=N/A speed=20.4x    frame=22698 fps=489 q=-0.0 size=N/A time=00:15:46.69 bitrate=N/A speed=20.4x    frame=22976 fps=489 q=-0.0 size=N/A time=00:15:58.29 bitrate=N/A speed=20.4x    frame=23213 fps=489 q=-0.0 size=N/A time=00:16:08.17 bitrate=N/A speed=20.4x    frame=23459 fps=489 q=-0.0 size=N/A time=00:16:18.43 bitrate=N/A speed=20.4x    frame=23706 fps=489 q=-0.0 size=N/A time=00:16:28.73 bitrate=N/A speed=20.4x    frame=23903 fps=488 q=-0.0 size=N/A time=00:16:36.95 bitrate=N/A speed=20.3x    frame=24143 fps=487 q=-0.0 size=N/A time=00:16:46.96 bitrate=N/A speed=20.3x    frame=24407 fps=488 q=-0.0 size=N/A time=00:16:57.97 bitrate=N/A speed=20.3x    frame=24651 fps=488 q=-0.0 size=N/A time=00:17:08.15 bitrate=N/A speed=20.3x    frame=24915 fps=488 q=-0.0 size=N/A time=00:17:19.16 bitrate=N/A speed=20.3x    frame=25160 fps=488 q=-0.0 size=N/A time=00:17:29.38 bitrate=N/A speed=20.3x    frame=25423 fps=488 q=-0.0 size=N/A time=00:17:40.35 bitrate=N/A speed=20.4x    frame=25705 fps=489 q=-0.0 size=N/A time=00:17:52.11 bitrate=N/A speed=20.4x    frame=25980 fps=489 q=-0.0 size=N/A time=00:18:03.58 bitrate=N/A speed=20.4x    frame=26250 fps=489 q=-0.0 size=N/A time=00:18:14.84 bitrate=N/A speed=20.4x    frame=26524 fps=490 q=-0.0 size=N/A time=00:18:26.27 bitrate=N/A speed=20.4x    frame=26800 fps=490 q=-0.0 size=N/A time=00:18:37.78 bitrate=N/A speed=20.4x    frame=27060 fps=490 q=-0.0 size=N/A time=00:18:48.62 bitrate=N/A speed=20.4x    frame=27304 fps=490 q=-0.0 size=N/A time=00:18:58.80 bitrate=N/A speed=20.4x    frame=27578 fps=490 q=-0.0 size=N/A time=00:19:10.23 bitrate=N/A speed=20.5x    frame=27833 fps=490 q=-0.0 size=N/A time=00:19:20.86 bitrate=N/A speed=20.5x    frame=28106 fps=491 q=-0.0 size=N/A time=00:19:32.25 bitrate=N/A speed=20.5x    frame=28371 fps=491 q=-0.0 size=N/A time=00:19:43.30 bitrate=N/A speed=20.5x    frame=28624 fps=491 q=-0.0 size=N/A time=00:19:53.85 bitrate=N/A speed=20.5x    frame=28888 fps=491 q=-0.0 size=N/A time=00:20:04.87 bitrate=N/A speed=20.5x    frame=29129 fps=491 q=-0.0 size=N/A time=00:20:14.92 bitrate=N/A speed=20.5x    frame=29379 fps=491 q=-0.0 size=N/A time=00:20:25.34 bitrate=N/A speed=20.5x    frame=29582 fps=490 q=-0.0 size=N/A time=00:20:33.81 bitrate=N/A speed=20.4x    frame=29810 fps=490 q=-0.0 size=N/A time=00:20:43.32 bitrate=N/A speed=20.4x    frame=30083 fps=490 q=-0.0 size=N/A time=00:20:54.71 bitrate=N/A speed=20.4x    frame=30343 fps=490 q=-0.0 size=N/A time=00:21:05.55 bitrate=N/A speed=20.4x    frame=30589 fps=490 q=-0.0 size=N/A time=00:21:15.81 bitrate=N/A speed=20.4x    frame=30864 fps=490 q=-0.0 size=N/A time=00:21:27.28 bitrate=N/A speed=20.5x    frame=31158 fps=491 q=-0.0 size=N/A time=00:21:39.54 bitrate=N/A speed=20.5x    frame=31433 fps=491 q=-0.0 size=N/A time=00:21:51.01 bitrate=N/A speed=20.5x    frame=31713 fps=492 q=-0.0 size=N/A time=00:22:02.69 bitrate=N/A speed=20.5x    frame=31955 fps=492 q=-0.0 size=N/A time=00:22:12.78 bitrate=N/A speed=20.5x    frame=32190 fps=491 q=-0.0 size=N/A time=00:22:22.59 bitrate=N/A speed=20.5x    frame=32429 fps=491 q=-0.0 size=N/A time=00:22:32.55 bitrate=N/A speed=20.5x    frame=32637 fps=490 q=-0.0 size=N/A time=00:22:41.23 bitrate=N/A speed=20.5x    frame=32855 fps=490 q=-0.0 size=N/A time=00:22:50.32 bitrate=N/A speed=20.4x    frame=33096 fps=490 q=-0.0 size=N/A time=00:23:00.37 bitrate=N/A speed=20.4x    frame=33326 fps=489 q=-0.0 size=N/A time=00:23:09.97 bitrate=N/A speed=20.4x    frame=33550 fps=489 q=-0.0 size=N/A time=00:23:19.31 bitrate=N/A speed=20.4x    frame=33758 fps=488 q=-0.0 size=N/A time=00:23:27.98 bitrate=N/A speed=20.4x    frame=33986 fps=488 q=-0.0 size=N/A time=00:23:37.49 bitrate=N/A speed=20.4x    frame=34128 fps=487 q=-0.0 size=N/A time=00:23:43.42 bitrate=N/A speed=20.3x    frame=34292 fps=485 q=-0.0 size=N/A time=00:23:50.26 bitrate=N/A speed=20.2x    frame=34493 fps=485 q=-0.0 size=N/A time=00:23:58.64 bitrate=N/A speed=20.2x    frame=34730 fps=484 q=-0.0 size=N/A time=00:24:08.53 bitrate=N/A speed=20.2x    [Parsed_psnr_10 @ 0000024be4bfc680] PSNR y:48.823628 u:49.592695 v:50.322068 average:49.165413 min:41.036748 max:inf
[out#0/null @ 0000024be4325b80] video:15006KiB audio:273148KiB subtitle:0KiB other streams:0KiB global headers:0KiB muxing overhead: unknown
frame=34923 fps=485 q=-0.0 Lsize=N/A time=00:24:16.58 bitrate=N/A speed=20.2x    
